<svg xmlns="http://www.w3.org/2000/svg" viewBox="0 0 192 192"><defs><style>.cls-1{fill:#334056}</style></defs><g id="trim_area" data-name="trim area"><path class="cls-1" d="M45 120a13.5 13.5 0 0 1 3.09-.06 55 55 0 0 1 8.3 1.28 3.33 3.33 0 0 0 .7.07 3.27 3.27 0 0 0 3.17-2.54 3.72 3.72 0 0 0 .08-.74 3.24 3.24 0 0 0-2.55-3.14 61.74 61.74 0 0 0-9.3-1.42 15.88 15.88 0 0 0-5.25.29l1.87 6.22Zm19.81 2.64h.13a3.24 3.24 0 1 0-2.39-1 3.28 3.28 0 0 0 2.26 1Zm8.9-1.29a3.22 3.22 0 0 0 1.05-.18 22.91 22.91 0 0 0 4.47-2 3.25 3.25 0 0 0-3.48-5.49 16.49 16.49 0 0 1-3.1 1.38 3.26 3.26 0 0 0 1.06 6.33Zm-8.65 29.26a3.23 3.23 0 0 0-3.37 3.12 3.27 3.27 0 0 0 3.12 3.38h.13a3.25 3.25 0 0 0 2.38-5.46 3.28 3.28 0 0 0-2.26-1.04Zm-7.2-1.32a62.71 62.71 0 0 0-9.27-1.42 16 16 0 0 0-5.27.29l1.88 6.22h-.13a13.77 13.77 0 0 1 3.12-.06h.06a57 57 0 0 1 8.24 1.28 3.23 3.23 0 0 0 3.87-2.47 3.63 3.63 0 0 0 .08-.73 3.24 3.24 0 0 0-2.58-3.11Zm17.89-1.18a16.49 16.49 0 0 1-3.1 1.38 3.25 3.25 0 0 0 1.06 6.32 3.49 3.49 0 0 0 1.05-.17 22 22 0 0 0 4.47-2 3.25 3.25 0 0 0-3.48-5.48ZM58 132.05a63.18 63.18 0 0 0-9.48-1.42 16.45 16.45 0 0 0-5.24.29l1.84 6.23H45a13.51 13.51 0 0 1 3.1-.06 55.51 55.51 0 0 1 8.48 1.28 3.17 3.17 0 0 0 .69.07 3.26 3.26 0 0 0 3.17-2.56 3.72 3.72 0 0 0 .08-.65 3.25 3.25 0 0 0-2.52-3.18Zm7.4 1.33a3.25 3.25 0 0 0-.25 6.49h.13a3.23 3.23 0 0 0 3.24-3.12 3.25 3.25 0 0 0-3.12-3.37Zm10.89-2.52a16.42 16.42 0 0 1-3.11 1.38 3.25 3.25 0 0 0 1 6.32 3.48 3.48 0 0 0 1-.17 22.87 22.87 0 0 0 4.47-2 3.25 3.25 0 0 0-3.45-5.51ZM162.89 62a3 3 0 0 0-4.2.58c-.61.8-6.25 7.68-14.77 2.29-7.17-4.54-13.17-4.38-17.39-2.75l6.14-6a3 3 0 0 0-4.17-4.31l-10.28 10a4.13 4.13 0 0 0 0 5.94L128 77.2a3 3 0 0 0 2.09.85 3 3 0 0 0 2.09-5.16l-4.77-4.62c2.29-1.36 6.68-2.56 13.28 1.61a17.61 17.61 0 0 0 9.5 3c8.1 0 13.21-6.68 13.28-6.77a3 3 0 0 0-.58-4.11ZM161 124.94a3 3 0 0 0-4.19.58c-.62.8-6.25 7.68-14.78 2.28-7.16-4.54-13.16-4.38-17.38-2.74l6.14-6a3 3 0 1 0-4.18-4.31l-10.27 10a4.13 4.13 0 0 0 0 5.94l9.8 9.5a3 3 0 1 0 4.17-4.31l-4.77-4.63c2.25-1.36 6.65-2.58 13.28 1.62a17.64 17.64 0 0 0 9.51 3c8.09 0 13.21-6.68 13.27-6.77a3 3 0 0 0-.6-4.16ZM118.25 113a3 3 0 0 0 2.12-5.13l-8.61-8.53c4-1.09 11.7-1.66 20.92 5a18.7 18.7 0 0 0 11.14 3.88c7.25 0 13.28-4.61 16.16-8.13a3 3 0 0 0-4.64-3.81c-.9 1.1-9.14 10.47-19.14 3.21s-18.9-7.46-24.44-6.33l9.24-9.07a3 3 0 1 0-4.23-4.26l-13.4 13.26a4.53 4.53 0 0 0 0 6.43l12.77 12.65a3 3 0 0 0 2.11.83Z"/><path class="cls-1" d="M163.52 18.43a10 10 0 0 1 10 10v135.14a10 10 0 0 1-10 10h-135a10 10 0 0 1-10-10V28.43a10 10 0 0 1 10-10h135m0-10h-135a20 20 0 0 0-20 20v135.14a20 20 0 0 0 20 20h135a20 20 0 0 0 20-20V28.43a20 20 0 0 0-20-20Z"/><path class="cls-1" d="M73 79.1c-.65 1.9-1.2 3.4-1.68 4.9s-1.27 3-3.24 2.33S66.44 84 67 82.48c.76-2.23 1.39-4.5 2.28-6.68a4.11 4.11 0 0 0-.46-4.1c-1.67-2.67-3.2-5.45-5-8.54-2.08 3.62-4.07 7-5.94 10.43-.25.46 0 1.27.2 1.87q1.26 4 2.64 8c.53 1.51.16 2.7-1.33 3.23s-2.53-.3-3-1.75c-.58-1.67-1.13-3.34-1.84-5.46-1 1.67-1.89 3-2.68 4.45s-1.92 2.2-3.42 1.37S47 83 47.8 81.64s1.59-2.8 2.59-4.58c-2 .4-3.73.68-5.4 1.07s-2.91.07-3.31-1.61c-.45-1.88.84-2.64 2.45-3 2.67-.55 5.34-1.06 8-1.65a2.81 2.81 0 0 0 1.69-.81c2-3.3 3.9-6.67 6-10.35H48c-.59 0-1.26.67-1.72 1.17-1.85 2-3.65 4-5.44 6.1-1 1.2-2.27 1.8-3.62.65s-1-2.45.1-3.65 2.3-2.61 3.82-4.33h-5.48c-1.65 0-2.7-.56-2.76-2.16s1.1-2.42 2.76-2.4 3.24 0 5.37 0c-1.31-1.52-2.35-2.77-3.44-4s-1.95-2.63-.35-4 2.71-.37 3.78.85c1.74 2 3.46 4 5.29 5.93A3.62 3.62 0 0 0 48.49 56c3.6.12 7.21.06 11.28.06-2.11-3.66-4-7.08-6.09-10.43-.27-.44-1.12-.61-1.74-.74-2.66-.59-5.33-1.1-8-1.65-1.54-.32-2.72-1.08-2.35-2.84s1.61-2.09 3.23-1.71 3.43.68 5.52 1.1c-1-1.77-1.82-3.22-2.65-4.67-.75-1.3-.88-2.64.51-3.49s2.7-.13 3.52 1.37 1.61 2.79 2.71 4.67c.68-2 1.24-3.63 1.77-5.25s1.34-2.62 3-2.09 2 2 1.33 3.58c-.08.21-.14.42-.2.63-.91 2.87-3 6-2.44 8.53.9 3.77 3.7 7.08 5.87 10.89 2-3.53 3.94-6.73 5.71-10a3 3 0 0 0-.08-2.06c-.74-2.46-1.56-4.9-2.4-7.34-.53-1.57-.92-3.18 1.06-3.89 2.14-.77 2.81.87 3.34 2.5.48 1.46 1 2.91 1.61 4.71 1.1-1.87 2-3.43 2.93-5 .78-1.36 1.93-1.95 3.32-1.19s1.49 2.06.72 3.41l-2.87 5.1c2.06-.42 3.7-.76 5.34-1.08s2.94-.24 3.35 1.55-.7 2.66-2.39 3a49.69 49.69 0 0 1-5.19 1 6.94 6.94 0 0 0-6.49 4.62 75.83 75.83 0 0 1-3.86 6.87h11.69c.52 0 1.1-.66 1.52-1.12q2.69-2.92 5.29-5.93c1.07-1.24 2.3-2.09 3.77-.84s.79 2.73-.36 4-2.11 2.37-3.53 4h6c1.56 0 2.66.7 2.64 2.29s-1.09 2.29-2.67 2.26h-5.87c1.34 1.55 2.37 2.8 3.46 4s2 2.64.36 4-2.82.27-3.91-1c-1.73-2-3.47-4-5.3-5.92a3.29 3.29 0 0 0-2-1c-3.53-.1-7.06 0-11.13 0a70 70 0 0 1 3.67 6.46c1.4 3.2 3.51 5 7.1 5.16a31.17 31.17 0 0 1 5.4 1.1 2.17 2.17 0 0 1 1.84 2.77 2.09 2.09 0 0 1-2.66 1.7c-1.87-.29-3.72-.69-6.05-1.12 1 1.77 1.75 3.17 2.59 4.52s1.38 3-.41 4-2.83-.29-3.64-1.75S74 80.83 73 79.1Z"/></g></svg>