<svg xmlns="http://www.w3.org/2000/svg" viewBox="0 0 192 192"><g data-name="trim area"><path d="M119.15 23.77a12.81 12.81 0 0 0-12.09 1.3L44.8 67.71l-19 3.82a17.26 17.26 0 0 0-13.58 20.29l4 20.24a17.27 17.27 0 0 0 17.57 13.84L46.27 157a16 16 0 0 0 17.94 9.71 17 17 0 0 0 2-.51 16 16 0 0 0 10.35-19.31l-.43-1.6-.86-3.16L73 133.7l-.86-3.17-1.56-5.8 7.22 1.45 3.53.72 11.87 2.39 36.31 7.32a13.25 13.25 0 0 0 5.06 0 12.84 12.84 0 0 0 10.06-15.1L126.9 33.14a12.76 12.76 0 0 0-7.75-9.37ZM29.5 112.41a5.14 5.14 0 0 1-1.5-2.71l-4-20.24a5.25 5.25 0 0 1 4.11-6.17l14.44-2.88 6.11 30.51-14.44 2.89a5.28 5.28 0 0 1-4.72-1.4Zm33.31 29.76.18.62 1.94 7.2a2.27 2.27 0 0 1 .06.25 4 4 0 0 1-7.58 2.27l-11.57-28.79 11.39-2.28.17.64Zm70-18.31a.77.77 0 0 1-.23.75.76.76 0 0 1-.74.23l-39.77-8-1-.21-24-4.83-6.24-1.26L53.9 76l60-41.06a.81.81 0 0 1 .79-.09.79.79 0 0 1 .5.62Zm21.3-50.21 16.28-3.26m.98 4.9-16.27 3.26a5 5 0 0 1-2-9.81l16.28-3.25a5 5 0 1 1 2 9.8Zm-26.53-32.57 14.4-12.66m-13.41 17.56a5 5 0 0 1-4.29-8.62l14.4-12.66a5 5 0 0 1 6.6 7.51l-14.4 12.66a4.88 4.88 0 0 1-2.31 1.11Zm11.63 58.14 18.16 6.14m.97 4.91a5.07 5.07 0 0 1-2.58-.17l-18.16-6.14a5 5 0 0 1 3.21-9.48l18.16 6.15a5 5 0 0 1-.63 9.64Z" style="fill:#324056"/><path style="fill:none" d="M0-.22h192v192H0z"/></g></svg>