<svg xmlns="http://www.w3.org/2000/svg" viewBox="0 0 192 192"><g data-name="trim area"><path d="M68.35 76.15h-36.5A11.77 11.77 0 0 1 20.1 64.4V27.9a11.76 11.76 0 0 1 11.75-11.75h36.5A11.76 11.76 0 0 1 80.1 27.9v36.5a11.77 11.77 0 0 1-11.75 11.75Zm-36.25-12h36v-36h-36Zm128.44 12H124a11.77 11.77 0 0 1-11.71-11.75V27.9A11.76 11.76 0 0 1 124 16.15h36.5a11.76 11.76 0 0 1 11.79 11.75v36.5a11.77 11.77 0 0 1-11.75 11.75Zm-36.25-12h36v-36h-36ZM68.41 169.9h-36.5a11.76 11.76 0 0 1-11.75-11.75v-36.5a11.76 11.76 0 0 1 11.75-11.75h36.5a11.77 11.77 0 0 1 11.75 11.75v36.5a11.77 11.77 0 0 1-11.75 11.75Zm-36.25-12h36v-36h-36Zm128.44 12h-36.51a11.77 11.77 0 0 1-11.75-11.75v-36.5a11.77 11.77 0 0 1 11.75-11.75h36.51a11.76 11.76 0 0 1 11.74 11.75v36.5a11.76 11.76 0 0 1-11.74 11.75Zm-36.26-12h36v-36h-36Z" style="fill:#334056"/><path style="fill:none" d="M0-.06h192v192H0z"/></g></svg>