<svg xmlns="http://www.w3.org/2000/svg" viewBox="0 0 192 192"><path d="M157 53.79a23.71 23.71 0 1 0-35.16.11 44.24 44.24 0 0 0-25.21 30.43h-1.89a44.24 44.24 0 0 0-25.59-31.1 23.7 23.7 0 1 0-35.15.12A44.1 44.1 0 0 0 7.65 93.66v6a8 8 0 0 0 8 8H72.3v.34a23.65 23.65 0 0 0 6.17 16 44.1 44.1 0 0 0-26.34 40.31v6a8 8 0 0 0 8 8h72.09a8 8 0 0 0 8-8v-6a44.11 44.11 0 0 0-26.59-40.43 23.66 23.66 0 0 0 6.07-15.6h55.89a8 8 0 0 0 8-8v-6A44.11 44.11 0 0 0 157 53.79Zm-17.63-27.53A11.71 11.71 0 1 1 127.66 38a11.72 11.72 0 0 1 11.71-11.74Zm-55.06 81.43A11.71 11.71 0 0 1 95.5 96.34h.5A11.72 11.72 0 0 1 107.7 108v.22a11.7 11.7 0 0 1-23.4-.22c0-.09.01-.2.01-.31Zm-32.79-82a11.71 11.71 0 1 1-11.7 11.71 11.72 11.72 0 0 1 11.7-11.7Zm24.24 70H19.65v-2a32 32 0 0 1 63.59-5.6 23.81 23.81 0 0 0-7.48 7.6Zm52.46 68.58v2H64.13v-2a32 32 0 0 1 64.09 0Zm43.37-68h-55a23.87 23.87 0 0 0-8.39-8.55 32 32 0 0 1 63.42 6.53Z" style="fill:#334056" data-name="trim area"/></svg>