<svg xmlns="http://www.w3.org/2000/svg" viewBox="0 0 192 192"><defs><style>.cls-1{fill:#334056}</style></defs><g id="trim_area" data-name="trim area"><path class="cls-1" d="M154.84 8H65.59a17 17 0 0 0-17 17v7.11H33.13a17 17 0 0 0-17 17v117.7a17 17 0 0 0 17 17H123a17 17 0 0 0 17-17v-2.69h14.88a17 17 0 0 0 17-17V25a17 17 0 0 0-17.04-17ZM128 152.16v14.69a5 5 0 0 1-5 5H33.13a5 5 0 0 1-5-5V49.15a5 5 0 0 1 5-5H123a5 5 0 0 1 5 5Zm31.88-5a5 5 0 0 1-5 5H140v-103a17 17 0 0 0-17-17H60.59V25a5 5 0 0 1 5-5h89.25a5 5 0 0 1 5 5Z"/><path class="cls-1" d="m46.61 161.7.58-3.78.29-1.89a6.64 6.64 0 0 0 .32-1.9c-.14-.39 1-.43-.77 0-1.46.36-.79 0-.64.39s.79.94 1.08 1.31a33.35 33.35 0 0 1 2.09 3.17 2.53 2.53 0 0 0 3.93.51 8.27 8.27 0 0 0 2.18-5.15c.09-.73.12-1.46.18-2.19A8.69 8.69 0 0 1 56 151l.08-.35c.19-.48.11-.45-.25.07-1.86 1.25-1.1-.61-.81.32a7.52 7.52 0 0 0 .49.86c.45.94.84 1.91 1.25 2.86l2.75 6.31a2.52 2.52 0 0 0 3.42.9c2.59-1.61 3.58-4.37 4-7.26.51-3.46 1-6.89 1.83-10.29a9.66 9.66 0 0 1 1.45-3.63l.27-.29c.34-.3.09-.37-.78-.21 0 .06.14-.32.18.31a15.71 15.71 0 0 0 .63 2.07c.79 3.34.81 6.78 1.13 10.17.29 3 .35 8.32 3.78 9.47s6.3-2.09 8.33-4.36c4.37-4.86 7.46-10.64 10.82-16.2 3.53-5.84 7.6-11.63 13.74-14.93 2.84-1.52.32-5.84-2.52-4.32-11.73 6.3-16 19.48-23.59 29.52a37.4 37.4 0 0 1-2.83 3.31 17.58 17.58 0 0 1-1.81 1.75 5.65 5.65 0 0 0-.57.38.47.47 0 0 1-.25.11 1 1 0 0 1 .8.36c-.36.1-1.19-8.9-1.25-9.64-.26-3.31-.44-7.25-2.1-10.22a4.72 4.72 0 0 0-3.79-2.62c-2-.09-3.56 1.38-4.6 2.94-2.08 3.15-2.58 7.51-3.16 11.15-.27 1.73-.4 3.5-.76 5.21a4.21 4.21 0 0 1-1.48 2.9l3.42.9-3.33-7.66c-1-2.17-2.31-4.88-5-5s-4.1 2.39-4.44 4.81c-.21 1.53.12 4-1.06 5.23l3.93.51a36.52 36.52 0 0 0-3.54-5c-1.25-1.48-3.07-2.62-5-1.73-1.82.83-2.29 2.67-2.57 4.49l-.94 6.14a2.57 2.57 0 0 0 1.74 3.07 2.52 2.52 0 0 0 3.08-1.74ZM107.78 60H47.93a4 4 0 0 1 0-8h59.85a4 4 0 0 1 0 8Zm.11 20H48a4 4 0 0 1 0-8h59.86a4 4 0 0 1 0 8Z"/></g></svg>