<svg xmlns="http://www.w3.org/2000/svg" viewBox="0 0 192 192"><defs><style>.cls-1{fill:#334056}</style></defs><g id="trim_area" data-name="trim area"><path class="cls-1" d="M36.15 28.21h20.08V40.4H36.15zm0 20.07h20.08v3.9H36.15zm0 8.05h20.08v3.9H36.15zm-.21 43.61h20.08v12.19H35.94zm0 20.07h20.08v3.9H35.94zm0 8.05h20.08v3.9H35.94zm92.16-39.93h20.08v12.19H128.1zm0 20.07h20.08v3.9H128.1zm0 8.05h20.08v3.9H128.1z"/><path class="cls-1" d="M179.94 171.86V75.07a7 7 0 0 0-7-7H120v-53a7 7 0 0 0-7-7H19a7 7 0 0 0-7 7V184h24.09v-12.13H84V184h24.1v-12.13h47.82V184H180v-12.14Zm-4-4H16V164h159.94Zm-55.85-87.8H168v68.06h-47.91ZM24 20.05h84v59.88H24Zm0 72h84v56H24Z"/></g></svg>