<svg xmlns="http://www.w3.org/2000/svg" viewBox="0 0 192 192"><defs><style>.cls-1{fill:#334056}</style></defs><g id="trim_area" data-name="trim area"><path class="cls-1" d="M104.1 63.93H52a4 4 0 0 1 0-8h52.1a4 4 0 0 1 0 8Zm-.24 24.16h-52a4 4 0 0 1 0-8h52.05a4 4 0 0 1 0 8Z"/><path class="cls-1" d="M143.94 8.05H16.05a8 8 0 0 0-8 8v20a8 8 0 0 0 8 8h4.14v132.18a7.8 7.8 0 0 0 8 7.56h73.73a5.72 5.72 0 1 0 0-11.42H98V126a6 6 0 0 0-6-6H68a6 6 0 0 0-6 6v46.39H32.19V44.06h91.73v41.73a6 6 0 0 0 12 0V44.06h8a8 8 0 0 0 8-8v-20a8 8 0 0 0-7.98-8.01ZM70 128h20v44.39H70Zm69.93-95.92h-4V32H20.19v.09h-.14v-12h119.89Z"/><path class="cls-1" d="M117.38 134.24c-.91-1.81-1.78-3.57-2.65-5.32-1.75-3.5-1.64-4.23 1.15-7l6.7-6.69a3.81 3.81 0 0 1 5-.81c2.11 1 4.2 2.09 6.41 3.2.12-.33.24-.62.34-.91.66-2 1.31-4 2-5.93a3.81 3.81 0 0 1 4.06-2.93h10.73a3.84 3.84 0 0 1 4.11 3c.75 2.22 1.49 4.45 2.25 6.75.29-.12.53-.21.76-.33 1.94-1 3.88-1.95 5.83-2.91a3.76 3.76 0 0 1 4.74.76q3.93 3.9 7.83 7.83a3.78 3.78 0 0 1 .76 4.74l-3.27 6.54c2.33.78 4.59 1.5 6.82 2.29a5.94 5.94 0 0 1 1.83 1 3.4 3.4 0 0 1 1.13 2.72v11.34a3.69 3.69 0 0 1-2.63 3.66c-2.33.8-4.67 1.57-7.1 2.38.11.27.2.51.31.73 1 1.95 2 3.88 2.91 5.83a3.79 3.79 0 0 1-.79 4.81q-3.84 3.86-7.71 7.7a3.82 3.82 0 0 1-4.88.79l-6.41-3.21c-.13.33-.25.62-.35.91l-2 6a3.77 3.77 0 0 1-3.95 2.84h-11a3.78 3.78 0 0 1-3.93-2.86c-.68-2-1.34-4-2-6-.09-.28-.2-.55-.33-.89l-6.1 3c-2.36 1.17-3.68 1-5.53-.89l-7.14-7.14c-1.85-1.85-2.06-3.17-.88-5.53l3-6c-.32-.13-.58-.25-.84-.34-2-.68-4.07-1.34-6.1-2a3.76 3.76 0 0 1-2.82-3.88v-11.07a3.73 3.73 0 0 1 2.76-3.83c2.26-.78 4.6-1.59 6.98-2.35Zm52.14-7.77c-1.32-1.32-2.59-2.62-3.9-3.87a.94.94 0 0 0-.84 0c-1.29.6-2.55 1.28-3.84 1.9a7.62 7.62 0 0 1-10.73-4.5q-.68-1.94-1.29-3.9c-.14-.46-.34-.68-.87-.66h-4.64a.77.77 0 0 0-.89.64c-.41 1.34-.85 2.67-1.31 4a7.62 7.62 0 0 1-10.78 4.37c-1.22-.61-2.44-1.23-3.64-1.88a.7.7 0 0 0-1 .16c-1.07 1.11-2.17 2.21-3.29 3.28a.75.75 0 0 0-.18 1.07c.64 1.18 1.25 2.37 1.85 3.57a7.62 7.62 0 0 1-4.39 10.83c-1.29.45-2.59.89-3.9 1.29a.82.82 0 0 0-.7.93q.07 2.28 0 4.56a.83.83 0 0 0 .71.93c1.22.38 2.43.79 3.64 1.21a7.61 7.61 0 0 1 4.42 11.3l-2 3.81c1.3 1.27 2.57 2.49 3.79 3.74a.71.71 0 0 0 1 .12c1.24-.64 2.49-1.27 3.75-1.88a7.62 7.62 0 0 1 10.75 4.51c.44 1.27.88 2.53 1.26 3.82a.87.87 0 0 0 1 .71c1.48 0 3-.06 4.46 0a1 1 0 0 0 1.12-.83c.37-1.26.8-2.5 1.23-3.73a7.61 7.61 0 0 1 11-4.28c1.28.68 2.56 1.38 3.89 2.1 1.32-1.32 2.63-2.61 3.91-3.94a.87.87 0 0 0 0-.77c-.59-1.27-1.24-2.51-1.85-3.76a7.6 7.6 0 0 1 4.48-10.85c1.3-.44 2.61-.84 3.89-1.32a1.1 1.1 0 0 0 .57-.8c.06-1.6.06-3.21 0-4.82a1.08 1.08 0 0 0-.57-.79c-1.31-.5-2.65-.9-4-1.36a7.6 7.6 0 0 1-4.29-10.92c.73-1.34 1.43-2.62 2.18-3.99Z"/><path class="cls-1" d="M145.75 160.66a14.71 14.71 0 1 1 14.68-14.73 14.68 14.68 0 0 1-14.68 14.73Zm7.34-14.74a7.37 7.37 0 1 0-7.32 7.4 7.4 7.4 0 0 0 7.32-7.4Z"/></g></svg>