<svg xmlns="http://www.w3.org/2000/svg" viewBox="0 0 192 192"><defs><style>.cls-1{fill:#334056}</style></defs><g id="trim_area" data-name="trim area"><path class="cls-1" d="M11.64 16H158.8a18.13 18.13 0 0 1 12.42 4.9l.37.35a15.78 15.78 0 0 1 0 23.12 18.13 18.13 0 0 1-12.43 4.89h-33.9a14.78 14.78 0 0 1-5.54 9h39.44a26.81 26.81 0 0 0 18.61-7.37 24.74 24.74 0 0 0 0-36.08l-.37-.35a26.81 26.81 0 0 0-18.6-7.37H11.64a4.48 4.48 0 0 0 0 9Zm168.15 160h-147a18 18 0 0 1-12.36-4.89 15.83 15.83 0 0 1 0-23.13l.37-.36a18 18 0 0 1 12.36-4.88H66a15.4 15.4 0 0 1 7.81-9H50.63a4.9 4.9 0 0 0-.77.07H33.12a26.63 26.63 0 0 0-18.55 7.38l-.37.35a24.78 24.78 0 0 0 0 36.06 26.63 26.63 0 0 0 18.55 7.38h147a4.48 4.48 0 0 0 0-8.95Zm-3.3-77.17a26.61 26.61 0 0 0-6.88-4.73 26 26 0 0 1 1 8.15 26.57 26.57 0 0 1-.34 3l.37.35a15.78 15.78 0 0 1 0 23.12 18.14 18.14 0 0 1-12.43 4.9h-40a54.14 54.14 0 0 1 .77 9h28.12a4.91 4.91 0 0 0 .78-.08h10.37a26.81 26.81 0 0 0 18.61-7.37 24.73 24.73 0 0 0 0-36.08ZM72 49.29H44.35a1.66 1.66 0 0 0-.22 0H34a26.8 26.8 0 0 0-18.61 7.36L15 57a24.73 24.73 0 0 0 0 36.07A26.6 26.6 0 0 0 22.14 98a26.35 26.35 0 0 1-.74-7.73 24.92 24.92 0 0 1 .42-3.07c-.2-.17-.41-.33-.6-.51a15.79 15.79 0 0 1 0-23.13l.37-.35A18.13 18.13 0 0 1 34 58.27h38.47a53.11 53.11 0 0 1-.54-7.49c0-.51.07-1 .07-1.49Z"/><path class="cls-1" d="M142.44 73.47c-19.47-.2-33.63 10.68-33.63 10.68l.16.23a17.54 17.54 0 0 0-2-1.75c-.39-5.47-.18-17.7 8.78-21.94 8.51-4 9.91-10.69 9.82-15.19-.35-18.42-18.41-23-25.16-23.21-12.08-.4-28.49 9-28.49 28.49 0 18.55 10 32.17 10.95 33.41-.43.43-.84.89-1.23 1.36-5.64.19-17.48-.55-21.37-9.47-3.76-8.63-10.37-10.24-14.88-10.29C27 65.57 21.84 83.48 21.4 90.22c-.77 12.06 8.13 28.78 27.6 29.36 17.86.56 31.44-8.31 33.55-9.77a18.11 18.11 0 0 0 2.11 1.9c.22 5.71-.5 17.28-9.25 21.2s-10.13 10.48-10.14 15c0 18.42 17.93 23.37 24.68 23.73 12.07.64 28.67-8.43 29.07-27.89.38-18.22-9-31.89-10.2-33.57a18.21 18.21 0 0 0 1.71-2c5.61-.3 17.47.18 21.55 9 3.94 8.56 10.58 10 15.09 10 18.42-.17 23.18-18.18 23.47-24.93.51-12.07-8.73-28.58-28.2-28.78ZM81.23 97.19a14.61 14.61 0 1 1 14.61 14.61 14.62 14.62 0 0 1-14.61-14.61Z"/><circle class="cls-1" cx="95.74" cy="97.9" r="4.9"/></g></svg>