<svg xmlns="http://www.w3.org/2000/svg" viewBox="0 0 192 192"><g data-name="trim area"><path d="M166.66 178.55H25.25a19.52 19.52 0 0 1 0-39h141.41a19.52 19.52 0 0 1 0 39Zm-141.41-27a7.52 7.52 0 0 0 0 15h141.41a7.52 7.52 0 0 0 0-15ZM115.8 47v-5.7a19.71 19.71 0 0 0-39.41 0v5.52a82.15 82.15 0 0 0-62.64 79.69v7.16h164v-7.16A82.12 82.12 0 0 0 115.8 47Zm-27.41-5.7a7.71 7.71 0 0 1 15.41 0v3.21H88.39Zm-62.47 80.34a70 70 0 0 1 139.67 0ZM144.44 12.11a12.39 12.39 0 0 1 5.79 3.73 12 12 0 0 1 3 7.14 13.22 13.22 0 0 1-2.38 8.39 23.67 23.67 0 0 1-4.82 5c-1.45 1.14-2.47 2-3 2.33a4.16 4.16 0 0 0-.69.52 2.44 2.44 0 0 0-.49 1.13 10.65 10.65 0 0 0 .59 4.4c.5 1.75 1.25 3.62 1.94 5.73a16 16 0 0 1-6.11-2.33 12.81 12.81 0 0 1-4.92-5.51 10.61 10.61 0 0 1-1-4.53 11.45 11.45 0 0 1 1.07-4.86 15.63 15.63 0 0 1 2.39-3.6 29.83 29.83 0 0 1 2.38-2.39c1.48-1.3 2.61-2.23 3.35-3a8.54 8.54 0 0 0 1.72-2.09 9.53 9.53 0 0 0 1-4c.29-1.68.18-3.68.18-6.06Z" style="fill:#334056"/><path style="fill:none" d="M0-.35h192v192H0z"/></g></svg>