<svg xmlns="http://www.w3.org/2000/svg" viewBox="0 0 192 192"><g data-name="trim area"><path d="M68 183.84v.16h56v-.11ZM166.66 8H25.11A17.1 17.1 0 0 0 8 25.11V66c0 .58 0 1.16.06 1.73A29.38 29.38 0 0 0 26 93.06v74.56a16.24 16.24 0 0 0 16.22 16.22h107.56A16.24 16.24 0 0 0 166 167.62V92.84a30.17 30.17 0 0 0 8.41-5.52 29 29 0 0 0 9.32-19.57V25.11A17.09 17.09 0 0 0 166.66 8ZM112 172H80v-33.64a4.06 4.06 0 0 1 4.06-4.06h23.85a4.06 4.06 0 0 1 4.06 4.06Zm42-4.33a4.22 4.22 0 0 1-4.22 4.22H124v-33.53a16.08 16.08 0 0 0-16.06-16.06H84.08A16.07 16.07 0 0 0 68 138.36v33.48H42.22a4.22 4.22 0 0 1-4.22-4.22V95.35a29.52 29.52 0 0 0 28-22.94.52.52 0 0 1 .53-.39.54.54 0 0 1 .54.39 29.34 29.34 0 0 0 57.27 0 .56.56 0 0 1 1.07 0 29.52 29.52 0 0 0 28.58 23ZM171.73 66a17.65 17.65 0 0 1-17.67 17.34 17.45 17.45 0 0 1-16.93-13.55 12.55 12.55 0 0 0-24.49 0 17.35 17.35 0 0 1-33.85 0 12.56 12.56 0 0 0-24.5 0A17.34 17.34 0 0 1 20 66V25.11A5.09 5.09 0 0 1 25.11 20h141.55a5.08 5.08 0 0 1 5.07 5.08Z" style="fill:#334056"/><path style="fill:none" d="M0 0h192v192H0z"/></g></svg>