<svg xmlns="http://www.w3.org/2000/svg" viewBox="0 0 192 192"><g data-name="trim area"><path d="M147.47 8.15H44.53C31 8.15 20.07 17.48 20.07 29v134c0 11.52 11 20.85 24.46 20.85h102.94c13.51 0 24.46-9.33 24.46-20.85V29c0-11.52-11-20.85-24.46-20.85Z" style="fill:#334056"/><path d="M140.18 130.71h-39.62a26.38 26.38 0 0 1 2.8-3.52c.62-.66 1.27-1.29 1.89-1.93a4.8 4.8 0 0 0 1.45.93 4.27 4.27 0 0 0 1.46.34c.55 0 1.08-.21 1.6-.2.77 0 1.74.83 2.7.9a5.29 5.29 0 0 0 3.05-.82 14.86 14.86 0 0 0 4.31-4.75 41.45 41.45 0 0 0 5.12-11.25 39.17 39.17 0 0 0 12.91 13c2.06 1.26 4-2 1.89-3.24A35.49 35.49 0 0 1 126.26 105a77.17 77.17 0 0 0 1.09-7.81c.22-2.45.36-5-.79-7.29a6.21 6.21 0 0 0-5.62-3.54 1.91 1.91 0 0 0-1.87 1.88 38.66 38.66 0 0 0 3.28 17.22 51.58 51.58 0 0 1-1.71 6.1 32.48 32.48 0 0 1-5.59 10.33c-.49.57-1.38 1.64-2.23 1.63s-1.45-.77-2.19-.92a3.83 3.83 0 0 0-1.65.08c-.35.08-.63.23-1 0a.65.65 0 0 1-.35-.49 8.75 8.75 0 0 0 .72-1.58 1.89 1.89 0 0 0-3.14-1.83A5.16 5.16 0 0 0 104 121a12.85 12.85 0 0 1-1.65 1.88 43.58 43.58 0 0 0-3 3.2l-.22.29c-.48-1.84-1-3.67-1.61-5.46a1.9 1.9 0 0 0-3.14-.83l-1.3 1.32a8.3 8.3 0 0 0-1.47-2c-1.15-.88-3-.38-4.11.35a5.15 5.15 0 0 0-2 2.6 4.3 4.3 0 0 0-3.88-1.57 3.53 3.53 0 0 0-2.74 2.8 7.24 7.24 0 0 0-1.94-1.48c.18-1.42.31-2.85.35-4.28a39.37 39.37 0 0 0-2.11-14c-1.34-3.83-3.4-8.11-7.39-9.74s-8.36.83-10.14 4.6c-2 4.31-1.87 9.8-1.61 14.45a46.07 46.07 0 0 0 3.05 14.58 3 3 0 0 0 2.73 2.23 3.82 3.82 0 0 0 2.94-2 17.85 17.85 0 0 0 2.7-6.85c.89-5 .27-10-.44-14.88a1.89 1.89 0 0 0-2.31-1.31 1.92 1.92 0 0 0-1.31 2.3 52.92 52.92 0 0 1 .72 10.28 19.55 19.55 0 0 1-.82 4.86 12.69 12.69 0 0 1-.8 2c-.07.14-.21.46-.38.79v-.11c-.2-.57-.38-1.14-.55-1.72a41.21 41.21 0 0 1-1-4.39 48.43 48.43 0 0 1-.78-8.5 32.38 32.38 0 0 1 .67-8.28c.53-2 1.84-4.47 4.18-4.83 2-.3 3.61 1.23 4.67 2.71a22.08 22.08 0 0 1 3 6.89 36.64 36.64 0 0 1 1 14.59 4.78 4.78 0 0 0-2.39 1 7.08 7.08 0 0 0-2.14 5.88 3.32 3.32 0 0 0 1.22 2.34H50.68a1 1 0 0 0 0 2h44.46c-.19.39-.39.79-.56 1.19a32.48 32.48 0 0 0-2.35 8.71c-.37 3-.34 6.18 1.3 8.84a1.92 1.92 0 0 0 3 .38c4-3.47 5-9 4.65-14.06-.13-1.69-.35-3.38-.63-5.06h39.68a1 1 0 0 0 0-2Zm-16.54-33.3a35.57 35.57 0 0 1-.83-6.59c1.19 1.34 1.1 4.29.83 6.59Zm-41.08 26.84s.04-.02 0 0Zm-8.74 6.46c1.47-1 2-2.82 2.37-4.52a14.06 14.06 0 0 1 1.73 2.42 1.93 1.93 0 0 0 2.56.67 3.25 3.25 0 0 0 1.76-2.35 11.63 11.63 0 0 0 .17-1.56 5.62 5.62 0 0 1 .11-.63l.22.17a6.15 6.15 0 0 1 .81 1.41 6 6 0 0 0 2.55 2.79 1.9 1.9 0 0 0 2.75-2.11c-.14-1.09-.43-3.48.74-4.1l1.62 2.36a1.9 1.9 0 0 0 2.94.38l.7-.71c.54 1.85 1 3.72 1.43 5.61a1.62 1.62 0 0 1-.1.18Zm22 16a17 17 0 0 1 .3-5.05 28.65 28.65 0 0 1 1.2-4.54c.31 3.33.14 6.82-1.49 9.63Z" style="fill:#fff"/></g></svg>