<svg xmlns="http://www.w3.org/2000/svg" viewBox="0 0 192 192"><defs><style>.cls-1{fill:#334056}</style></defs><g id="trim_area" data-name="trim area"><path class="cls-1" d="M145.68 125.52a23.15 23.15 0 1 1-23.14 23.14 23.17 23.17 0 0 1 23.14-23.14m0-12a35.15 35.15 0 1 0 35.14 35.14 35.14 35.14 0 0 0-35.14-35.14Z"/><path class="cls-1" d="M150.92 55.85a9.24 9.24 0 0 0-2.76-6.36l-.35-.35c-.16-.18-.32-.37-.5-.55l-30.53-30.5-5.78-5.82c-.38-.38-.78-.73-1.19-1.07a12 12 0 0 0-5.92-2.79 13.52 13.52 0 0 0-2.85-.3h-10v.12H33.67c-12.42 0-22.49 9.33-22.49 20.85V163c0 11.52 10.07 20.85 22.49 20.85h51.26a6 6 0 0 0 6-6 6 6 0 0 0-6-6H33.67c-5.79 0-10.49-4-10.49-8.85V29c0-4.88 4.7-8.85 10.49-8.85h57.39v24.23a23.83 23.83 0 0 0 23.82 23.82h24V94a6 6 0 0 0 6 6 6 6 0 0 0 6-6V68.2h.09Zm-36 .35a11.84 11.84 0 0 1-11.82-11.82v-23l5.21 5.21 11 11.11 18.56 18.5Zm28.34 95.11a7.25 7.25 0 0 1 .9-1.75 11.35 11.35 0 0 1 1.25-1.52c.46-.47.94-.95 1.44-1.42l1-1a7 7 0 0 0 .85-1 5 5 0 0 0 .59-1.23 5.53 5.53 0 0 0 .2-1.54 3.26 3.26 0 0 0-.93-2.48 3.51 3.51 0 0 0-2.53-.9 5 5 0 0 0-3.27 1 5.82 5.82 0 0 0-1.64 3.37l-5.38-.66a14.46 14.46 0 0 1 1-3.36 8.46 8.46 0 0 1 1.94-2.71 8.87 8.87 0 0 1 3-1.81 12.41 12.41 0 0 1 4.32-.67 10.75 10.75 0 0 1 7 2.05 6.74 6.74 0 0 1 2.52 5.54 8.93 8.93 0 0 1-.27 2.33 7 7 0 0 1-.73 1.78 8.54 8.54 0 0 1-1 1.39c-.39.42-.79.84-1.21 1.25l-1.42 1.42a13 13 0 0 0-1.17 1.35 7.16 7.16 0 0 0-.79 1.42 4.39 4.39 0 0 0-.29 1.61v.7h-5.75v-1a6.36 6.36 0 0 1 .37-2.16Zm5.38 5.86v6.63h-5.75v-6.63Z"/></g></svg>