<svg xmlns="http://www.w3.org/2000/svg" viewBox="0 0 192 192"><defs><style>.cls-1{fill:#334056;stroke:#334056;stroke-miterlimit:10;stroke-width:4px}</style></defs><g id="trim_area" data-name="trim area"><path class="cls-1" d="M169.92 8.06H22.08a14 14 0 0 0-14 14v147.88a14 14 0 0 0 14 14h147.84a14 14 0 0 0 14-14V22.06a14 14 0 0 0-14-14Zm-147.84 8h147.84a6 6 0 0 1 6 6v18H16.08v-18a6 6 0 0 1 6-6Zm147.84 159.88H22.08a6 6 0 0 1-6-6V48.07h159.84v121.87a6 6 0 0 1-6 6Z"/><circle class="cls-1" cx="28.19" cy="28.13" r="4.15"/><circle class="cls-1" cx="48.14" cy="28.11" r="4.15"/><circle class="cls-1" cx="68.12" cy="28.13" r="4.15"/><path d="M38.46 88.18v11.44a8.79 8.79 0 0 1 3.19-2.75 8.59 8.59 0 0 1 3.81-.87q3.95 0 5.85 2.06t1.9 6.49v15.29H47v-14.47c0-1.62-.31-2.73-.93-3.32a3.45 3.45 0 0 0-2.48-.88 5.32 5.32 0 0 0-2.06.35 5.8 5.8 0 0 0-1.62 1 5.53 5.53 0 0 0-1 1.48 4.29 4.29 0 0 0-.42 1.89v13.91h-6.2V88.18Zm17.81 13.34v-4.83h3.63v-6.16h6.2v6.16h5.32v4.83H66.1v10.68a3.17 3.17 0 0 0 .75 2.46 2.92 2.92 0 0 0 2 .64 10.93 10.93 0 0 0 1.27-.07 6.83 6.83 0 0 0 1.26-.24l.89 4.56a15.19 15.19 0 0 1-2.51.56 19 19 0 0 1-2.32.15c-2.54 0-4.43-.6-5.65-1.81s-1.84-3.25-1.84-6.12v-10.81Zm16.78 0v-4.83h3.64v-6.16h6.2v6.16h5.32v4.83h-5.32v10.68a3.17 3.17 0 0 0 .75 2.46 2.88 2.88 0 0 0 2 .64 10.64 10.64 0 0 0 1.26-.07 6.94 6.94 0 0 0 1.27-.24l.88 4.56a14.87 14.87 0 0 1-2.5.56 19.07 19.07 0 0 1-2.33.15q-3.81 0-5.64-1.81c-1.23-1.22-1.84-3.25-1.84-6.12v-10.81Zm25.03-4.83v3.06a8.45 8.45 0 0 1 7.27-3.75c3.22 0 5.63 1.1 7.22 3.28s2.39 5.18 2.39 9a17.44 17.44 0 0 1-.68 5 11.41 11.41 0 0 1-2 3.88 9 9 0 0 1-3.17 2.5 9.66 9.66 0 0 1-4.2.89 10.08 10.08 0 0 1-3.44-.62 7.63 7.63 0 0 1-3.21-2.48v11h-6.2V96.69Zm.51 15.31a5 5 0 0 0 1.22 2.2 4.52 4.52 0 0 0 1.8 1 7.07 7.07 0 0 0 1.83.24 4.83 4.83 0 0 0 2-.4 4.07 4.07 0 0 0 1.62-1.26 6.5 6.5 0 0 0 1.09-2.24 12.24 12.24 0 0 0 .39-3.32 13.15 13.15 0 0 0-.37-3.41 6.47 6.47 0 0 0-1-2.24 3.82 3.82 0 0 0-1.58-1.24 4.94 4.94 0 0 0-1.92-.38 6 6 0 0 0-2 .31 5.89 5.89 0 0 0-1.64 1 5 5 0 0 0-1.3 2.12 10.76 10.76 0 0 0-.42 3.28v.71a14 14 0 0 0 .28 3.63Zm26.96-15.31v7.13h-6.34v-7.13Zm0 16v7.14h-6.34v-7.14Zm3.05 7.13 10.28-32.52H145l-10.28 32.52Zm14.71 0 10.28-32.52h6.15l-10.27 32.52Z" style="fill:#334056"/></g></svg>