<svg xmlns="http://www.w3.org/2000/svg" viewBox="0 0 192 192"><defs><clipPath id="clip-path"><path d="M973-1633.72v-45c0-27.67-14.78-50.82-40.54-57v-6.13a13.5 13.5 0 0 0-13.52-13.51 13.5 13.5 0 0 0-13.52 13.51v6.13c-25.86 6.13-40.54 29.19-40.54 57v45l-18 18v9H991v-9Zm-54.06 54.06a18.07 18.07 0 0 0 18-18h-36a18 18 0 0 0 17.96 18Z" style="clip-rule:evenodd;fill:none"/></clipPath><style>.cls-4{fill:none}</style></defs><g id="trim_area" data-name="trim area"><path d="M166.84 8.09H25.29A17.1 17.1 0 0 0 8.21 25.17v40.91c0 .58 0 1.16.06 1.73a29.38 29.38 0 0 0 17.91 25.31v74.56A16.24 16.24 0 0 0 42.4 183.9H150a16.24 16.24 0 0 0 16.22-16.22V92.9a30.17 30.17 0 0 0 8.41-5.52 29 29 0 0 0 9.32-19.57V25.17a17.09 17.09 0 0 0-17.11-17.08ZM76 171.9a1.21 1.21 0 0 1-.06-.38v-3.94A15.59 15.59 0 0 1 91.52 152h9.08a15.59 15.59 0 0 1 15.57 15.57v3.94a1.21 1.21 0 0 1-.06.38Zm12-42.46a8.08 8.08 0 1 1 8.08 8.08 8.1 8.1 0 0 1-8.08-8.08Zm66.2 38.24a4.22 4.22 0 0 1-4.2 4.22h-22.88v-4.32a26.56 26.56 0 0 0-17.38-24.91 19 19 0 1 0-27.37 0A26.57 26.57 0 0 0 65 167.58v4.32H42.4a4.22 4.22 0 0 1-4.22-4.22V95.41a29.52 29.52 0 0 0 28-22.94.52.52 0 0 1 .53-.39.54.54 0 0 1 .54.39 29.34 29.34 0 0 0 57.27 0 .56.56 0 0 1 1.07 0 29.52 29.52 0 0 0 28.58 23Zm17.73-101.6a17.65 17.65 0 0 1-17.67 17.34 17.45 17.45 0 0 1-16.93-13.55 12.55 12.55 0 0 0-24.49 0 17.35 17.35 0 0 1-33.85 0 12.56 12.56 0 0 0-24.5 0 17.34 17.34 0 0 1-34.26-3.79V25.17a5.09 5.09 0 0 1 5.08-5.08h141.53a5.08 5.08 0 0 1 5.07 5.08Z" style="fill:#334056"/><path class="cls-4" d="M0 0h192v192H0z"/><path class="cls-4" d="M0 0h192v192H0z"/></g></svg>