<svg xmlns="http://www.w3.org/2000/svg" viewBox="0 0 192 192"><path d="M173.69 83.91h-9.9c-5.66-28.48-26-51.09-51.87-57.76v-13a5 5 0 0 0-5-5H85a5 5 0 0 0-5 5v13c-25.8 6.7-46.13 29.31-51.78 57.74H17.81a10 10 0 0 0-10 10V102a10 10 0 0 0 10 10h14.4c.61 6.85 2.36 15.79 5.25 26.67 6.84 25.78 30 44.39 56.35 45.27h4.39a60.49 60.49 0 0 0 57-46.42 173.24 173.24 0 0 0 4.51-25.52h14a10 10 0 0 0 10-10v-8.09a10 10 0 0 0-10.02-10ZM88 16.17h15.93v47.75H88ZM51.93 52.86v11.29a4 4 0 0 0 8 0v-19A58.86 58.86 0 0 1 80 34.47v32.45a5 5 0 0 0 5 5h21.93a5 5 0 0 0 5-5V34.44A58.88 58.88 0 0 1 132 45.08V64a4 4 0 1 0 8 0V52.77a70.26 70.26 0 0 1 15.61 31.14H36.39a70.24 70.24 0 0 1 15.54-31.05Zm95.45 82.77A52.47 52.47 0 0 1 98 175.93h-3.93c-22.84-.77-42.94-16.93-48.88-39.33a163.36 163.36 0 0 1-4.95-24.6h111.45a170.39 170.39 0 0 1-4.31 23.63ZM175.69 102a2 2 0 0 1-2 2H17.81a2 2 0 0 1-2-2v-8.09a2 2 0 0 1 2-2h155.88a2 2 0 0 1 2 2Z" style="stroke:#334056;stroke-miterlimit:10;stroke-width:4px;fill:#334056" data-name="trim area"/></svg>